<svg id="visual" viewBox="0 0 900 600" width="900" height="600" xmlns="http://www.w3.org/2000/svg" xmlns:xlink="http://www.w3.org/1999/xlink" version="1.1"><g stroke-width="1" stroke-linejoin="bevel"><path d="M478 290L509 233L416 280Z" fill="#246688" stroke="#246688"></path><path d="M509 233L402 165L416 280Z" fill="#112e42" stroke="#112e42"></path><path d="M509 233L516 121L402 165Z" fill="#277297" stroke="#277297"></path><path d="M516 121L392 117L402 165Z" fill="#081a28" stroke="#081a28"></path><path d="M402 165L296 283L416 280Z" fill="#19435d" stroke="#19435d"></path><path d="M478 290L591 281L509 233Z" fill="#277297" stroke="#277297"></path><path d="M509 233L593 200L516 121Z" fill="#246688" stroke="#246688"></path><path d="M591 281L593 200L509 233Z" fill="#205a7a" stroke="#205a7a"></path><path d="M428 435L523 383L478 290Z" fill="#00101c" stroke="#00101c"></path><path d="M478 290L523 383L591 281Z" fill="#15384f" stroke="#15384f"></path><path d="M265 198L296 283L402 165Z" fill="#081a28" stroke="#081a28"></path><path d="M416 280L428 435L478 290Z" fill="#0c2435" stroke="#0c2435"></path><path d="M277 130L265 198L402 165Z" fill="#15384f" stroke="#15384f"></path><path d="M329 396L428 435L416 280Z" fill="#1d4e6b" stroke="#1d4e6b"></path><path d="M296 283L329 396L416 280Z" fill="#297ea6" stroke="#297ea6"></path><path d="M183 333L329 396L296 283Z" fill="#1d4e6b" stroke="#1d4e6b"></path><path d="M523 383L605 379L591 281Z" fill="#297ea6" stroke="#297ea6"></path><path d="M668 139L635 115L593 200Z" fill="#297ea6" stroke="#297ea6"></path><path d="M593 468L605 379L523 383Z" fill="#112e42" stroke="#112e42"></path><path d="M392 117L277 130L402 165Z" fill="#1d4e6b" stroke="#1d4e6b"></path><path d="M668 139L593 200L701 178Z" fill="#0c2435" stroke="#0c2435"></path><path d="M593 200L635 115L516 121Z" fill="#277297" stroke="#277297"></path><path d="M516 121L395 0L392 117Z" fill="#0c2435" stroke="#0c2435"></path><path d="M701 178L593 200L591 281Z" fill="#297ea6" stroke="#297ea6"></path><path d="M520 0L395 0L516 121Z" fill="#277297" stroke="#277297"></path><path d="M392 117L272 0L277 130Z" fill="#1d4e6b" stroke="#1d4e6b"></path><path d="M573 0L516 121L635 115Z" fill="#1d4e6b" stroke="#1d4e6b"></path><path d="M573 0L520 0L516 121Z" fill="#15384f" stroke="#15384f"></path><path d="M605 379L696 312L591 281Z" fill="#0c2435" stroke="#0c2435"></path><path d="M696 312L701 178L591 281Z" fill="#0c2435" stroke="#0c2435"></path><path d="M407 525L469 495L428 435Z" fill="#15384f" stroke="#15384f"></path><path d="M428 435L469 495L523 383Z" fill="#00101c" stroke="#00101c"></path><path d="M605 379L680 419L696 312Z" fill="#00101c" stroke="#00101c"></path><path d="M178 86L202 196L277 130Z" fill="#081a28" stroke="#081a28"></path><path d="M277 130L202 196L265 198Z" fill="#1d4e6b" stroke="#1d4e6b"></path><path d="M265 198L202 196L296 283Z" fill="#081a28" stroke="#081a28"></path><path d="M469 495L593 468L523 383Z" fill="#246688" stroke="#246688"></path><path d="M685 0L573 0L635 115Z" fill="#112e42" stroke="#112e42"></path><path d="M685 0L635 115L668 139Z" fill="#205a7a" stroke="#205a7a"></path><path d="M202 196L183 333L296 283Z" fill="#297ea6" stroke="#297ea6"></path><path d="M291 487L407 525L428 435Z" fill="#00101c" stroke="#00101c"></path><path d="M593 468L680 419L605 379Z" fill="#277297" stroke="#277297"></path><path d="M291 487L428 435L329 396Z" fill="#19435d" stroke="#19435d"></path><path d="M563 600L665 512L593 468Z" fill="#15384f" stroke="#15384f"></path><path d="M169 399L291 487L329 396Z" fill="#112e42" stroke="#112e42"></path><path d="M395 0L272 0L392 117Z" fill="#00101c" stroke="#00101c"></path><path d="M272 0L178 86L277 130Z" fill="#112e42" stroke="#112e42"></path><path d="M202 196L107 313L183 333Z" fill="#0c2435" stroke="#0c2435"></path><path d="M696 312L776 288L701 178Z" fill="#246688" stroke="#246688"></path><path d="M827 402L776 288L696 312Z" fill="#1d4e6b" stroke="#1d4e6b"></path><path d="M129 376L169 399L183 333Z" fill="#0c2435" stroke="#0c2435"></path><path d="M183 333L169 399L329 396Z" fill="#00101c" stroke="#00101c"></path><path d="M818 97L668 139L701 178Z" fill="#205a7a" stroke="#205a7a"></path><path d="M765 0L685 0L668 139Z" fill="#15384f" stroke="#15384f"></path><path d="M82 0L135 124L178 86Z" fill="#00101c" stroke="#00101c"></path><path d="M178 86L135 124L202 196Z" fill="#205a7a" stroke="#205a7a"></path><path d="M135 124L122 168L202 196Z" fill="#246688" stroke="#246688"></path><path d="M593 468L665 512L680 419Z" fill="#297ea6" stroke="#297ea6"></path><path d="M680 419L827 402L696 312Z" fill="#205a7a" stroke="#205a7a"></path><path d="M563 600L593 468L469 495Z" fill="#297ea6" stroke="#297ea6"></path><path d="M107 313L129 376L183 333Z" fill="#246688" stroke="#246688"></path><path d="M169 399L236 537L291 487Z" fill="#19435d" stroke="#19435d"></path><path d="M272 0L195 0L178 86Z" fill="#277297" stroke="#277297"></path><path d="M122 168L107 313L202 196Z" fill="#15384f" stroke="#15384f"></path><path d="M427 600L466 600L407 525Z" fill="#277297" stroke="#277297"></path><path d="M407 525L466 600L469 495Z" fill="#15384f" stroke="#15384f"></path><path d="M267 600L427 600L407 525Z" fill="#081a28" stroke="#081a28"></path><path d="M267 600L407 525L291 487Z" fill="#19435d" stroke="#19435d"></path><path d="M103 521L236 537L169 399Z" fill="#205a7a" stroke="#205a7a"></path><path d="M900 294L825 230L776 288Z" fill="#246688" stroke="#246688"></path><path d="M776 288L825 230L701 178Z" fill="#277297" stroke="#277297"></path><path d="M466 600L563 600L469 495Z" fill="#19435d" stroke="#19435d"></path><path d="M825 230L818 97L701 178Z" fill="#19435d" stroke="#19435d"></path><path d="M818 97L765 0L668 139Z" fill="#112e42" stroke="#112e42"></path><path d="M160 600L267 600L236 537Z" fill="#081a28" stroke="#081a28"></path><path d="M236 537L267 600L291 487Z" fill="#00101c" stroke="#00101c"></path><path d="M837 504L680 419L665 512Z" fill="#1d4e6b" stroke="#1d4e6b"></path><path d="M837 504L827 402L680 419Z" fill="#0c2435" stroke="#0c2435"></path><path d="M563 600L705 600L665 512Z" fill="#297ea6" stroke="#297ea6"></path><path d="M0 137L0 233L122 168Z" fill="#112e42" stroke="#112e42"></path><path d="M122 168L0 233L107 313Z" fill="#205a7a" stroke="#205a7a"></path><path d="M195 0L82 0L178 86Z" fill="#15384f" stroke="#15384f"></path><path d="M827 402L900 294L776 288Z" fill="#15384f" stroke="#15384f"></path><path d="M825 230L900 181L818 97Z" fill="#205a7a" stroke="#205a7a"></path><path d="M900 413L900 294L827 402Z" fill="#0c2435" stroke="#0c2435"></path><path d="M900 294L900 181L825 230Z" fill="#112e42" stroke="#112e42"></path><path d="M818 97L900 0L765 0Z" fill="#00101c" stroke="#00101c"></path><path d="M0 380L103 521L129 376Z" fill="#00101c" stroke="#00101c"></path><path d="M129 376L103 521L169 399Z" fill="#19435d" stroke="#19435d"></path><path d="M0 380L129 376L107 313Z" fill="#081a28" stroke="#081a28"></path><path d="M0 137L122 168L135 124Z" fill="#081a28" stroke="#081a28"></path><path d="M0 233L0 305L107 313Z" fill="#246688" stroke="#246688"></path><path d="M103 521L160 600L236 537Z" fill="#246688" stroke="#246688"></path><path d="M789 600L837 504L665 512Z" fill="#00101c" stroke="#00101c"></path><path d="M900 181L900 108L818 97Z" fill="#19435d" stroke="#19435d"></path><path d="M82 0L0 137L135 124Z" fill="#15384f" stroke="#15384f"></path><path d="M0 305L0 380L107 313Z" fill="#277297" stroke="#277297"></path><path d="M103 521L77 600L160 600Z" fill="#112e42" stroke="#112e42"></path><path d="M900 476L900 413L827 402Z" fill="#19435d" stroke="#19435d"></path><path d="M705 600L789 600L665 512Z" fill="#081a28" stroke="#081a28"></path><path d="M837 504L900 476L827 402Z" fill="#1d4e6b" stroke="#1d4e6b"></path><path d="M900 600L900 476L837 504Z" fill="#19435d" stroke="#19435d"></path><path d="M900 108L900 0L818 97Z" fill="#15384f" stroke="#15384f"></path><path d="M82 0L0 0L0 137Z" fill="#1d4e6b" stroke="#1d4e6b"></path><path d="M0 519L77 600L103 521Z" fill="#277297" stroke="#277297"></path><path d="M0 380L0 519L103 521Z" fill="#081a28" stroke="#081a28"></path><path d="M789 600L900 600L837 504Z" fill="#00101c" stroke="#00101c"></path><path d="M0 519L0 600L77 600Z" fill="#0c2435" stroke="#0c2435"></path></g></svg>